<?xml version="1.0" standalone="no"?>
<!DOCTYPE svg PUBLIC "-//W3C//DTD SVG 1.1//EN" "http://www.w3.org/Graphics/SVG/1.1/DTD/svg11.dtd" >
<svg xmlns="http://www.w3.org/2000/svg" xmlns:xlink="http://www.w3.org/1999/xlink" version="1.1">
<metadata></metadata>
<defs>
<font id="hyundai_sans_textbold" horiz-adv-x="1146" >
<font-face units-per-em="2048" ascent="1536" descent="-512" />
<missing-glyph horiz-adv-x="430" />
<glyph horiz-adv-x="0" />
<glyph horiz-adv-x="682" />
<glyph unicode="&#xd;" horiz-adv-x="430" />
<glyph unicode=" "  horiz-adv-x="430" />
<glyph unicode="&#x09;" horiz-adv-x="430" />
<glyph unicode="&#xa0;" horiz-adv-x="430" />
<glyph unicode="!" horiz-adv-x="585" d="M133 0v309h320v-309h-320zM133 1393h320l-74 -920h-172z" />
<glyph unicode="&#x22;" horiz-adv-x="911" d="M102 1393h289l-37 -572h-215zM520 1393h289l-37 -572h-215z" />
<glyph unicode="#" horiz-adv-x="1265" d="M70 315v193h182l74 321h-144v193h187l73 321h222l-74 -321h233l74 321h221l-74 -321h154v-193h-199l-73 -321h159v-193h-204l-72 -315h-221l71 315h-231l-72 -315h-221l72 315h-137zM473 508h232l73 321h-231z" />
<glyph unicode="$" d="M55 279l181 137q52 -92 120 -150.5t166 -72.5v397l-35 10q-337 92 -337 391q0 142 90 244t256 129v188h211v-190q202 -43 323 -223l-182 -135q-69 106 -166 137v-328q381 -106 381 -424q0 -153 -97.5 -261.5t-258.5 -141.5v-205h-211v194q-277 32 -441 304zM416 1004 q0 -54 24.5 -87.5t81.5 -56.5v285q-52 -17 -79 -55t-27 -86zM682 207q55 23 85 67t30 97q0 111 -115 166v-330z" />
<glyph unicode="%" horiz-adv-x="1708" d="M53 1022q0 147 99 244.5t249 97.5t249.5 -97.5t99.5 -244.5t-99.5 -244.5t-249.5 -97.5t-249 97.5t-99 244.5zM246 1022q0 -70 43.5 -117t111.5 -47t112 47t44 117t-44 117t-112 47t-111.5 -47t-43.5 -117zM436 0l635 1343h201l-633 -1343h-203zM958 313 q0 147 99.5 244.5t249.5 97.5t249 -97.5t99 -244.5t-99 -244.5t-249 -97.5t-249.5 97.5t-99.5 244.5zM1151 313q0 -70 44 -116.5t112 -46.5t111.5 46.5t43.5 116.5t-43.5 117t-111.5 47t-112 -47t-44 -117z" />
<glyph unicode="&#x26;" horiz-adv-x="1361" d="M74 369q0 285 291 434q-86 127 -86 260q0 150 107 254t278 104q163 0 267.5 -96t104.5 -242q0 -128 -78 -208.5t-229 -143.5l191 -227l202 262l174 -133l-233 -299l276 -328v-6h-335l-109 135q-185 -164 -389 -164q-192 0 -312 116t-120 282zM338 387q0 -91 52.5 -145 t135.5 -54q120 0 234 117l-262 328q-160 -93 -160 -246zM535 1069q0 -86 63 -174q101 39 141.5 80t40.5 100q0 56 -32 93.5t-89 37.5q-61 0 -92.5 -39.5t-31.5 -97.5z" />
<glyph unicode="'" horiz-adv-x="493" d="M102 1393h289l-37 -572h-215z" />
<glyph unicode="(" horiz-adv-x="673" d="M84 535q0 140 27 268t69 223t101 178t116.5 139t120.5 101l121 -135q-96 -93 -157.5 -194t-98.5 -247.5t-37 -332.5t37 -332.5t99 -248t157 -194.5l-121 -135q-63 45 -120.5 101t-116 139.5t-101 178.5t-69.5 223t-27 268z" />
<glyph unicode=")" horiz-adv-x="673" d="M35 -240q95 93 157 194.5t99 248t37 332.5t-37 332.5t-98.5 247.5t-157.5 194l121 135q63 -45 120.5 -101t116.5 -139t101 -178t69 -223t27 -268t-27 -268t-69.5 -223t-101 -178.5t-116 -139.5t-120.5 -101z" />
<glyph unicode="*" horiz-adv-x="905" d="M63 1034l66 199l113 -45q112 -42 125 -62l8 7q-13 17 -21 137l-6 123h209l-6 -123q-8 -120 -21 -137l9 -7q13 20 125 62l112 45l66 -199l-119 -30q-117 -31 -137 -25l-2 -8q20 -7 96 -101l78 -94l-170 -123l-66 103q-65 102 -65 125h-8q0 -21 -66 -125l-66 -103l-170 123 l78 94q31 38 59.5 68t37.5 33l-3 8q-20 -6 -137 25z" />
<glyph unicode="+" d="M123 506v225h332v377h237v-377h332v-225h-332v-373h-237v373h-332z" />
<glyph unicode="," horiz-adv-x="555" d="M119 0v315h319v-280l-149 -359h-156l131 324h-145z" />
<glyph unicode="-" horiz-adv-x="792" d="M121 512v217h551v-217h-551z" />
<glyph unicode="." horiz-adv-x="548" d="M115 0v315h319v-315h-319z" />
<glyph unicode="/" horiz-adv-x="915" d="M45 0l561 1393h264l-561 -1393h-264z" />
<glyph unicode="0" horiz-adv-x="1241" d="M96 672q0 329 137 514.5t388 185.5t387.5 -185.5t136.5 -514.5t-136.5 -515t-387.5 -186t-388 186t-137 515zM365 672q0 -228 60.5 -348.5t195.5 -120.5t195.5 120.5t60.5 348.5t-60.5 348.5t-195.5 120.5t-195.5 -120.5t-60.5 -348.5z" />
<glyph unicode="1" horiz-adv-x="808" d="M16 1098l433 245h190v-1343h-260v1051l-266 -152z" />
<glyph unicode="2" horiz-adv-x="1062" d="M72 1047q19 60 52 113.5t83.5 103t127 79t167.5 29.5q211 0 329.5 -118t118.5 -300q0 -96 -31.5 -181.5t-79 -146.5t-110.5 -120.5t-120.5 -102t-113.5 -92.5t-85 -90h559v-221h-881v188q41 89 119 176t156.5 153t152 132.5t120 140.5t46.5 150q0 201 -193 201 q-147 0 -202 -180z" />
<glyph unicode="3" horiz-adv-x="1079" d="M45 207l174 166q25 -37 45 -61.5t52.5 -52.5t74.5 -42t94 -14q108 0 174 52.5t66 147.5q0 90 -63.5 138.5t-186.5 48.5h-108v217h108q93 0 138.5 48.5t45.5 123.5q0 78 -45.5 120t-121.5 42q-164 0 -242 -137l-154 155q67 93 170 153t226 60q207 0 321.5 -100.5 t114.5 -274.5q0 -84 -46.5 -158t-127.5 -120q116 -39 177.5 -127.5t61.5 -208.5q0 -124 -68 -218.5t-183 -144t-257 -49.5q-71 0 -133.5 14.5t-107 36.5t-84 55.5t-65 63t-50.5 66.5z" />
<glyph unicode="4" horiz-adv-x="1189" d="M45 330v182l539 831h342v-792h198v-221h-198v-330h-260v330h-621zM336 551h330v323q0 168 14 240h-8q-11 -49 -109 -211z" />
<glyph unicode="5" horiz-adv-x="1085" d="M45 207l174 166q24 -36 46 -61.5t55 -52.5t76.5 -41.5t95.5 -14.5q103 0 173 69t70 177q0 110 -65.5 175.5t-167.5 65.5q-60 0 -102.5 -20t-86.5 -58l-166 52l56 679h727v-221h-500l-22 -227q84 25 147 25q119 0 219.5 -52.5t165 -161.5t64.5 -257q0 -204 -144.5 -341 t-370.5 -137q-88 0 -162 20.5t-127 57.5t-88 74t-67 84z" />
<glyph unicode="6" horiz-adv-x="1189" d="M94 639q0 343 150 538t409 195q146 0 256.5 -62t175.5 -161l-176 -152q-42 66 -107.5 105t-148.5 39q-121 0 -200.5 -96t-92.5 -285q121 145 308 145q86 0 163.5 -33t135.5 -92t92.5 -146.5t34.5 -189.5q0 -204 -140 -338.5t-342 -134.5q-167 0 -285.5 87t-175.5 236 t-57 345zM395 440q0 -105 57 -171t158 -66t158 66t57 171t-57 171.5t-158 66.5t-158 -66.5t-57 -171.5z" />
<glyph unicode="7" horiz-adv-x="978" d="M53 1122v221h879v-180l-481 -1163h-285v6l475 1116h-588z" />
<glyph unicode="8" horiz-adv-x="1187" d="M88 379q0 121 64 216t172 130q-170 87 -170 285q0 155 114.5 258.5t325.5 103.5t325.5 -103.5t114.5 -258.5q0 -197 -172 -285q108 -35 173 -130t65 -216q0 -181 -130 -294.5t-376 -113.5t-376 113.5t-130 294.5zM358 403q0 -92 59.5 -149t176.5 -57t176 57t59 149 t-59 149.5t-176 57.5t-176.5 -57.5t-59.5 -149.5zM422 991q0 -73 47 -117.5t125 -44.5t125 44.5t47 117.5t-47 117.5t-125 44.5t-125 -44.5t-47 -117.5z" />
<glyph unicode="9" horiz-adv-x="1189" d="M96 899q0 204 140 338.5t342 134.5q167 0 285.5 -87t175.5 -235.5t57 -344.5q0 -343 -150 -538.5t-409 -195.5q-146 0 -257 62.5t-176 161.5l177 151q42 -66 107.5 -104.5t148.5 -38.5q121 0 200 96t92 285q-122 -146 -307 -146q-86 0 -163.5 33t-135.5 92t-92.5 146.5 t-34.5 189.5zM365 903q0 -105 57 -171t158 -66t158 66t57 171t-57 171.5t-158 66.5t-158 -66.5t-57 -171.5z" />
<glyph unicode=":" horiz-adv-x="552" d="M121 0v307h311v-307h-311zM121 743v308h311v-308h-311z" />
<glyph unicode=";" horiz-adv-x="555" d="M121 0v305h311v-272l-145 -346h-152l127 313h-141zM123 743v308h311v-308h-311z" />
<glyph unicode="&#x3c;" d="M96 512v213l903 387v-231l-426 -181q-180 -77 -229 -77v-9q49 0 229 -77l426 -181v-231z" />
<glyph unicode="=" d="M121 264v225h903v-225h-903zM121 750v225h903v-225h-903z" />
<glyph unicode="&#x3e;" d="M147 125v231l426 181q180 77 230 77v9q-50 0 -230 77l-426 181v231l904 -387v-213z" />
<glyph unicode="?" horiz-adv-x="925" d="M51 1116q18 63 50.5 116t80.5 96.5t117 68t152 24.5q182 0 293.5 -103t111.5 -259q0 -204 -186 -346l-80 -70q-46 -45 -61 -78t-15 -92h-233q-34 82 -4.5 168t108.5 156l82 69q108 90 108 176q0 63 -38.5 102.5t-104.5 39.5q-64 0 -108.5 -41t-61.5 -115zM242 0v309h319 v-309h-319z" />
<glyph unicode="@" horiz-adv-x="1851" d="M84 541q0 277 107.5 488.5t299.5 326t439 114.5q181 0 335.5 -60.5t263 -167.5t169.5 -259.5t61 -331.5q0 -146 -35.5 -261.5t-93 -182.5t-125 -101t-137.5 -34q-198 0 -260 143q-41 -64 -109.5 -102.5t-158.5 -38.5q-160 0 -262.5 124t-102.5 334t102.5 335.5 t260.5 125.5q70 0 129.5 -35t91.5 -90v111h248v-571q0 -59 16 -88t55 -29q61 0 105.5 85t44.5 265q0 288 -161 460.5t-437 172.5q-279 0 -447 -198.5t-168 -534.5q0 -331 167 -519t448 -188q161 0 297 78l88 -178q-181 -96 -385 -96q-181 0 -336.5 63t-268.5 177.5 t-177 285.5t-64 377zM741 535q0 -115 46.5 -179.5t121.5 -64.5q45 0 85 32.5t61 88.5v243q-21 56 -61 88.5t-85 32.5q-75 0 -121.5 -63.5t-46.5 -177.5z" />
<glyph unicode="A" horiz-adv-x="1304" d="M2 0l485 1393h330l486 -1393h-293l-99 299h-520l-96 -299h-293zM465 524h373l-131 404q-23 65 -37.5 128.5t-14.5 92.5h-8q0 -29 -13.5 -92.5t-35.5 -128.5z" />
<glyph unicode="B" horiz-adv-x="1296" d="M170 0v1393h520q194 0 313 -104.5t119 -266.5q0 -91 -43.5 -164t-124.5 -121q123 -45 195 -131.5t72 -208.5q0 -187 -124.5 -292t-351.5 -105h-575zM446 217h273q109 0 162 51.5t53 141.5t-53 141t-162 51h-273v-385zM446 819h185q107 0 156 48t49 130t-49 130.5 t-156 48.5h-185v-357z" />
<glyph unicode="C" horiz-adv-x="1351" d="M88 696q0 211 80.5 376t229 257t341.5 92q189 0 335 -90.5t226 -279.5l-235 -103q-37 112 -123 174t-203 62q-121 0 -204 -63.5t-121.5 -171t-38.5 -253.5t38.5 -253.5t121.5 -170.5t204 -63q118 0 203.5 61.5t122.5 173.5l235 -102q-80 -189 -226 -280t-335 -91 q-193 0 -341.5 92t-229 257t-80.5 376z" />
<glyph unicode="D" horiz-adv-x="1417" d="M170 0v1393h483q320 0 497 -184.5t177 -512.5t-177 -512t-497 -184h-483zM446 225h195q200 0 299.5 122.5t99.5 348.5t-99.5 348.5t-299.5 122.5h-195v-942z" />
<glyph unicode="E" horiz-adv-x="1173" d="M170 0v1393h907v-226h-631v-350h533v-225h-533v-367h631v-225h-907z" />
<glyph unicode="F" horiz-adv-x="1124" d="M170 0v1393h887v-226h-611v-364h533v-225h-533v-578h-276z" />
<glyph unicode="G" horiz-adv-x="1421" d="M88 696q0 206 80 370.5t230 259.5t345 95q384 0 570 -309l-211 -143q-39 69 -84.5 114.5t-114 73t-155.5 27.5q-127 0 -212.5 -65.5t-123 -172.5t-37.5 -250q0 -106 22 -193t67 -153.5t119 -103.5t171 -37q167 0 282 90v240h-266v225h543v-584q-99 -91 -251.5 -150 t-318.5 -59q-195 0 -345 95t-230 259.5t-80 370.5z" />
<glyph unicode="H" horiz-adv-x="1470" d="M170 0v1393h276v-576h578v576h276v-1393h-276v592h-578v-592h-276z" />
<glyph unicode="I" horiz-adv-x="616" d="M170 0v1393h276v-1393h-276z" />
<glyph unicode="J" horiz-adv-x="1071" d="M12 242l207 141q45 -86 96 -130t119 -44q114 0 159.5 72t45.5 215v897h276v-906q0 -114 -28 -207t-84 -163t-147.5 -108t-211.5 -38q-295 0 -432 271z" />
<glyph unicode="K" horiz-adv-x="1280" d="M170 0v1393h276v-617l467 617h330v-7l-467 -571l502 -809v-6h-317l-355 606l-160 -198v-408h-276z" />
<glyph unicode="L" horiz-adv-x="1079" d="M170 0v1393h276v-1168h592v-225h-868z" />
<glyph unicode="M" horiz-adv-x="1806" d="M170 0v1393h375l305 -873q49 -136 49 -207h8q0 71 49 207l306 873h374v-1393h-276v694q0 221 8 320h-8q-17 -115 -84 -305l-248 -709h-250l-248 709q-32 90 -56 182t-28 123h-8q8 -99 8 -320v-694h-276z" />
<glyph unicode="N" horiz-adv-x="1505" d="M170 0v1393h248l543 -779q40 -58 69.5 -115.5t36.5 -84.5h8q-16 75 -16 233v746h276v-1393h-245l-545 778q-40 58 -70 116t-37 85h-8q16 -74 16 -234v-745h-276z" />
<glyph unicode="O" horiz-adv-x="1474" d="M88 696q0 211 80 376t228 257t341 92t341 -92t228 -257t80 -376t-80 -376t-228 -257t-341 -92t-341 92t-228 257t-80 376zM375 696q0 -222 92.5 -354.5t269.5 -132.5t270 132.5t93 354.5t-93 355t-270 133t-269.5 -133t-92.5 -355z" />
<glyph unicode="P" horiz-adv-x="1196" d="M170 0v1393h492q213 0 345 -113t132 -322q0 -208 -131.5 -320t-345.5 -112h-216v-526h-276zM446 752h189q217 0 217 206q0 108 -58 158.5t-159 50.5h-189v-415z" />
<glyph unicode="Q" horiz-adv-x="1474" d="M88 696q0 211 80 376t228 257t341 92t341 -92t228 -257t80 -376q0 -174 -55 -318t-157 -241l227 -284l-211 -164l-238 315q-109 -33 -215 -33q-193 0 -341 92t-228 257t-80 376zM375 696q0 -222 92.5 -354.5t269.5 -132.5t270 132.5t93 354.5t-93 355t-270 133 t-269.5 -133t-92.5 -355z" />
<glyph unicode="R" horiz-adv-x="1302" d="M170 0v1393h551q196 0 322 -113.5t126 -300.5q0 -144 -77 -246t-207 -143l428 -584v-6h-328l-389 567h-150v-567h-276zM446 793h238q98 0 148.5 48t50.5 138t-51 139t-148 49h-238v-374z" />
<glyph unicode="S" horiz-adv-x="1159" d="M35 289l190 145q63 -109 147.5 -171t211.5 -62q100 0 158.5 53.5t58.5 130.5q0 75 -49 125.5t-162 81.5l-105 29q-163 43 -257.5 142.5t-94.5 262.5q0 171 122.5 283t340.5 112q139 0 251 -63t185 -174l-192 -144q-100 152 -252 152q-78 0 -123 -44.5t-45 -107.5 q0 -64 36.5 -100t125.5 -61l104 -29q87 -24 156.5 -60.5t126 -90t87.5 -129t31 -167.5q0 -189 -143 -310.5t-366 -121.5q-351 0 -543 318z" />
<glyph unicode="T" horiz-adv-x="1116" d="M41 1169v224h1034v-224h-379v-1169h-276v1169h-379z" />
<glyph unicode="U" horiz-adv-x="1404" d="M156 520v873h276v-856q0 -328 270 -328q271 0 271 328v856h276v-873q0 -119 -34.5 -218.5t-101 -173.5t-171.5 -115.5t-240 -41.5t-240 41.5t-171.5 115.5t-100.5 173t-34 219z" />
<glyph unicode="V" horiz-adv-x="1298" d="M4 1393h287l303 -940q51 -165 51 -222h8q0 53 52 222l303 940h286l-479 -1393h-332z" />
<glyph unicode="W" horiz-adv-x="1918" d="M14 1393h283l197 -838q45 -196 45 -254h8q0 53 49 254l219 838h289l219 -838q49 -201 49 -254h8q0 58 45 254l197 838h283l-363 -1393h-309l-221 866q-47 190 -47 250h-9q-4 -69 -49 -250l-221 -866h-309z" />
<glyph unicode="X" horiz-adv-x="1273" d="M0 0v6l463 727l-410 653v7h303l281 -475l281 475h303v-7l-412 -653l465 -727v-6h-305l-332 541l-332 -541h-305z" />
<glyph unicode="Y" horiz-adv-x="1222" d="M2 1386v7h311l297 -539l299 539h312v-7l-471 -784v-602h-277v600z" />
<glyph unicode="Z" horiz-adv-x="1132" d="M72 0v193l622 974h-594v226h942v-193l-628 -975h639v-225h-981z" />
<glyph unicode="[" horiz-adv-x="681" d="M160 -340v1733h456v-193h-217v-1347h217v-193h-456z" />
<glyph unicode="\" horiz-adv-x="915" d="M45 1393h264l561 -1393h-264z" />
<glyph unicode="]" horiz-adv-x="681" d="M66 -147h217v1347h-217v193h456v-1733h-456v193z" />
<glyph unicode="^" d="M115 766l356 627h205l356 -627l-241 -4l-127 227q-86 157 -86 199h-9q0 -42 -86 -199l-127 -227z" />
<glyph unicode="_" horiz-adv-x="931" d="M0 -84h932v-209h-932v209z" />
<glyph unicode="`" horiz-adv-x="1380" d="M393 1503v6h283l184 -309v-6h-215z" />
<glyph unicode="a" horiz-adv-x="1107" d="M66 311q0 153 102.5 246.5t280.5 93.5q151 0 262 -88v66q0 100 -52 163.5t-157 63.5q-80 0 -141 -31.5t-97 -76.5l-139 170q52 67 153.5 114t229.5 47q226 0 349.5 -117.5t123.5 -310.5v-651h-254v74q-112 -103 -278 -103q-178 0 -280.5 93.5t-102.5 246.5zM338 311 q0 -63 43 -105t131 -42q65 0 116.5 26.5t82.5 69.5v102q-31 44 -82.5 70.5t-116.5 26.5q-88 0 -131 -42.5t-43 -105.5z" />
<glyph unicode="b" horiz-adv-x="1241" d="M139 0v1454h271v-512q113 139 282 139q206 0 337.5 -149.5t131.5 -405.5t-131.5 -405.5t-337.5 -149.5q-89 0 -164.5 41t-128.5 113v-125h-260zM410 354q32 -74 93 -116.5t130 -42.5q114 0 184 83.5t70 247.5t-70.5 248t-183.5 84q-69 0 -130 -43t-93 -117v-344z" />
<glyph unicode="c" horiz-adv-x="1077" d="M80 526q0 254 139 404.5t377 150.5q140 0 255 -73.5t167 -214.5l-205 -97q-29 74 -85.5 118t-131.5 44q-119 0 -180.5 -90.5t-61.5 -241.5t61.5 -241t180.5 -90q75 0 132 43.5t85 117.5l205 -96q-52 -141 -167 -215t-255 -74q-238 0 -377 150.5t-139 404.5z" />
<glyph unicode="d" horiz-adv-x="1241" d="M80 526q0 256 131.5 405.5t337.5 149.5q169 0 282 -139v512h271v-1454h-260v125q-53 -72 -128.5 -113t-164.5 -41q-206 0 -337.5 149.5t-131.5 405.5zM354 526q0 -164 70 -247.5t184 -83.5q69 0 130 42.5t93 116.5v344q-32 74 -93 117t-130 43q-113 0 -183.5 -84 t-70.5 -248z" />
<glyph unicode="e" horiz-adv-x="1136" d="M78 522q0 129 41.5 236t111.5 176t161.5 107t193.5 38q210 0 345.5 -146t135.5 -372q0 -46 -8 -108h-715q16 -122 84 -192.5t186 -70.5q168 0 260 148l168 -139q-89 -118 -198 -173t-250 -55q-229 0 -372.5 150.5t-143.5 400.5zM348 637h459q-12 116 -70 173.5t-151 57.5 q-96 0 -157 -58.5t-81 -172.5z" />
<glyph unicode="f" horiz-adv-x="722" d="M49 850v201h168v71q0 159 87.5 258t254.5 99q63 0 127 -9v-213h-43q-85 0 -120.5 -32t-35.5 -107v-67h199v-201h-199v-850h-270v850h-168z" />
<glyph unicode="g" horiz-adv-x="1208" d="M80 575q0 231 123 367.5t315 136.5q90 0 165 -41t128 -112v125h260v-920q0 -101 -28.5 -186.5t-77.5 -145t-115.5 -101.5t-141.5 -61.5t-157 -19.5q-172 0 -282.5 68.5t-166.5 181.5l185 121q49 -78 106.5 -117t149.5 -39q48 0 92 16t82 48t61 88t23 129v96 q-114 -137 -283 -137q-192 0 -315 136t-123 367zM348 575q0 -139 64 -209.5t166 -70.5q69 0 130 41t93 113v251q-32 72 -93 114t-130 42q-102 0 -166 -71t-64 -210z" />
<glyph unicode="h" horiz-adv-x="1206" d="M139 0v1454h271v-506q114 131 290 131q191 0 284 -111t93 -304v-664h-270v629q0 109 -53 168t-140 59q-70 0 -122 -42.5t-82 -111.5v-702h-271z" />
<glyph unicode="i" horiz-adv-x="548" d="M127 1223v258h295v-258h-295zM139 0v1051h271v-1051h-271z" />
<glyph unicode="j" horiz-adv-x="546" d="M-12 -217q77 68 114 137t37 180v951h271v-965q0 -317 -263 -477zM127 1223v258h295v-258h-295z" />
<glyph unicode="k" horiz-adv-x="1087" d="M139 0v1454h271v-817l335 414h308v-9l-361 -426l404 -610v-6h-310l-260 420l-116 -139v-281h-271z" />
<glyph unicode="l" horiz-adv-x="548" d="M139 0v1454h271v-1454h-271z" />
<glyph unicode="m" horiz-adv-x="1832" d="M139 0v1051h260v-115q110 143 297 143q228 0 314 -172q113 172 319 172q188 0 281.5 -106t93.5 -291v-682h-270v649q0 98 -49.5 152.5t-127.5 54.5q-69 0 -120.5 -42t-79.5 -109v-705h-271v649q0 98 -49 152.5t-127 54.5q-69 0 -120.5 -42t-79.5 -109v-705h-271z" />
<glyph unicode="n" horiz-adv-x="1206" d="M139 0v1051h260v-115q115 143 301 143q191 0 284 -111t93 -304v-664h-270v629q0 109 -53 168t-140 59q-70 0 -122 -42.5t-82 -111.5v-702h-271z" />
<glyph unicode="o" horiz-adv-x="1200" d="M78 526q0 244 142.5 398.5t379.5 154.5t379.5 -154.5t142.5 -398.5q0 -246 -142.5 -400.5t-379.5 -154.5t-379.5 154.5t-142.5 400.5zM352 526q0 -149 63 -240t185 -91t185 91t63 240t-63 239.5t-185 90.5t-185 -90.5t-63 -239.5z" />
<glyph unicode="p" horiz-adv-x="1241" d="M139 -354v1405h262v-121q114 151 291 151q206 0 337.5 -149.5t131.5 -405.5t-131.5 -405.5t-337.5 -149.5q-170 0 -282 138v-463h-271zM410 354q30 -74 91.5 -116.5t131.5 -42.5q114 0 184 83.5t70 247.5t-70.5 248t-183.5 84q-70 0 -131.5 -43t-91.5 -117v-344z" />
<glyph unicode="q" horiz-adv-x="1239" d="M80 526q0 256 131.5 405.5t337.5 149.5q177 0 291 -151v121h262v-1405h-271v463q-112 -138 -282 -138q-206 0 -337.5 149.5t-131.5 405.5zM354 526q0 -164 70 -247.5t184 -83.5q70 0 131.5 42.5t91.5 116.5v344q-30 74 -91.5 117t-131.5 43q-113 0 -183.5 -84t-70.5 -248 z" />
<glyph unicode="r" horiz-adv-x="782" d="M139 0v1051h258v-154q40 83 115.5 132.5t165.5 49.5q24 0 70 -4v-254h-60q-210 0 -278 -166v-655h-271z" />
<glyph unicode="s" horiz-adv-x="946" d="M43 188l162 152q102 -158 266 -158q64 0 104.5 30.5t40.5 80.5t-32.5 77t-112.5 46l-80 18q-278 63 -278 320q0 137 101.5 231t277.5 94q218 0 344 -172l-166 -143q-42 52 -85 78t-98 26q-47 0 -78.5 -28.5t-31.5 -69.5q0 -40 22 -64.5t76 -37.5l78 -19 q169 -39 248.5 -118.5t79.5 -221.5t-116 -240t-304 -98q-133 0 -239 57t-179 160z" />
<glyph unicode="t" horiz-adv-x="768" d="M37 850v201h180v268h262v-268h230v-201h-230v-471q0 -92 38 -130t126 -38h66v-211q-86 -12 -150 -12q-176 0 -263 93t-87 290v479h-172z" />
<glyph unicode="u" horiz-adv-x="1206" d="M129 387v664h270v-629q0 -109 53 -168t140 -59q69 0 122.5 42.5t82.5 110.5v703h270v-1051h-260v115q-116 -144 -301 -144q-191 0 -284 111.5t-93 304.5z" />
<glyph unicode="v" horiz-adv-x="1091" d="M20 1051h291l181 -551q51 -165 51 -221h8q0 56 51 221l180 551h289l-387 -1051h-274z" />
<glyph unicode="w" horiz-adv-x="1667" d="M20 1051h289l129 -521q45 -191 45 -245h9q0 60 51 243l147 523h287l147 -523q52 -186 52 -243h8q0 54 45 245l129 521h289l-314 -1051h-278l-168 575q-49 181 -49 234h-9q0 -53 -49 -234l-168 -575h-278z" />
<glyph unicode="x" horiz-adv-x="1081" d="M16 0v6l340 533l-307 503v9h299l193 -342l192 342h299v-9l-307 -503l340 -533v-6h-303l-221 375l-222 -375h-303z" />
<glyph unicode="y" horiz-adv-x="1067" d="M20 1051h291l174 -480q56 -163 56 -213h8q8 79 51 213l162 480h293l-561 -1405h-293l202 487z" />
<glyph unicode="z" horiz-adv-x="964" d="M61 0v178l494 672h-463v201h793v-179l-490 -671h498v-201h-832z" />
<glyph unicode="{" horiz-adv-x="729" d="M35 430v193h94q46 0 75 28.5t29 75.5v350q0 157 86.5 239.5t241.5 82.5q61 0 96 -6v-191h-49q-66 0 -100.5 -34.5t-34.5 -120.5v-314q0 -86 -35.5 -139t-103.5 -68q68 -15 103.5 -68t35.5 -139v-313q0 -86 34.5 -121t100.5 -35h49v-190q-35 -6 -96 -6q-155 0 -241.5 82 t-86.5 239v351q0 47 -29 75.5t-75 28.5h-94z" />
<glyph unicode="|" horiz-adv-x="557" d="M160 -340v1794h237v-1794h-237z" />
<glyph unicode="}" horiz-adv-x="729" d="M72 -150h49q66 0 100.5 35t34.5 121v313q0 86 35.5 139t103.5 68q-68 15 -103.5 68t-35.5 139v314q0 86 -34.5 120.5t-100.5 34.5h-49v191q34 6 96 6q155 0 241.5 -82.5t86.5 -239.5v-350q0 -47 29 -75.5t75 -28.5h94v-193h-94q-46 0 -75 -28.5t-29 -75.5v-351 q0 -157 -86.5 -239t-241.5 -82q-62 0 -96 6v190z" />
<glyph unicode="~" d="M123 467v231q115 84 231 84q69 0 151 -24t157 -48t126 -24q105 0 232 86h6v-229q-109 -88 -231 -88q-66 0 -148.5 24.5t-158.5 49t-126 24.5q-111 0 -233 -86h-6z" />
<glyph unicode="&#xa1;" horiz-adv-x="565" d="M123 -342l74 920h172l73 -920h-319zM123 741v310h319v-310h-319z" />
<glyph unicode="&#xa2;" d="M117 676q0 215 104.5 354.5t290.5 171.5v141h211v-145q109 -23 195 -93t129 -183l-205 -97q-46 115 -144 152v-602q98 37 144 151l205 -96q-42 -114 -128 -183.5t-196 -94.5v-152h-211v150q-186 32 -290.5 171.5t-104.5 354.5zM383 676q0 -116 39 -195t117 -108v604 q-77 -27 -116.5 -107t-39.5 -194z" />
<glyph unicode="&#xa3;" d="M141 535v215h113q-39 103 -39 213q0 182 112.5 295.5t313.5 113.5q129 0 236 -73t155 -203l-209 -113q-51 158 -182 158q-166 0 -166 -187q0 -78 43 -196h346v-215h-280q4 -36 4 -58q0 -84 -29.5 -145t-79.5 -119h514v-221h-805v190q39 43 58.5 67t41.5 61.5t31 77.5 t9 91q0 16 -4 48h-183z" />
<glyph unicode="&#xa4;" d="M102 264l129 142q-51 91 -51 212q0 119 51 213l-129 142l156 143l123 -137q83 47 192 47q110 0 193 -47l123 137l155 -143l-129 -142q52 -96 52 -213q0 -119 -52 -212l129 -142l-155 -143l-123 135q-85 -45 -193 -45q-107 0 -192 45l-123 -135zM410 618q0 -97 43 -151.5 t120 -54.5t120.5 54.5t43.5 151.5t-43.5 152t-120.5 55q-76 0 -119.5 -55t-43.5 -152z" />
<glyph unicode="&#xa5;" d="M51 1337v6h293l229 -460l232 460h293v-6l-365 -643h230v-174h-258v-121h258v-174h-258v-225h-261v225h-258v174h258v121h-258v174h228z" />
<glyph unicode="&#xa6;" horiz-adv-x="552" d="M158 -340v743h237v-743h-237zM158 713v741h237v-741h-237z" />
<glyph unicode="&#xa7;" horiz-adv-x="1099" d="M80 -45l160 135q45 -78 120.5 -129t180.5 -51q86 0 137 31t51 88q0 18 -7 34.5t-16.5 28.5t-30 25.5t-35 21.5t-46.5 21t-49 19t-56 20l-100 34q-285 97 -285 332q0 155 117 260q-71 77 -71 217t108.5 234t288.5 94q137 0 250.5 -55t177.5 -148l-168 -143 q-100 135 -246 135q-78 0 -122 -31t-44 -88q0 -50 41 -82.5t137 -64.5l105 -35q165 -56 250.5 -134t85.5 -208q0 -157 -121 -262q82 -76 82 -205q0 -156 -124 -253t-319 -97q-291 0 -452 256zM350 588q0 -59 38.5 -93.5t123.5 -64.5l102 -35l84 -30q70 52 70 129 q0 57 -41 89t-152 70l-100 35l-67 25q-58 -52 -58 -125z" />
<glyph unicode="&#xa8;" horiz-adv-x="1239" d="M270 1225v256h273v-256h-273zM702 1225v256h271v-256h-271z" />
<glyph unicode="&#xa9;" horiz-adv-x="1542" d="M88 694q0 143 53 270t144 218.5t218 144.5t269 53t269 -53t218 -144.5t144 -218.5t53 -270t-53 -270.5t-144 -218.5t-218 -144t-269 -53t-269 53t-218 144t-144 218.5t-53 270.5zM287 694q0 -211 138 -353t347 -142t347 142t138 353q0 139 -62.5 252.5t-174 178.5 t-248.5 65t-248.5 -65t-174 -178.5t-62.5 -252.5zM428 694q0 144 94 247t256 103q194 0 297 -163l-137 -109q-69 96 -150 96q-72 0 -112.5 -47.5t-40.5 -126.5t40.5 -126.5t112.5 -47.5q81 0 150 96l137 -108q-104 -164 -297 -164q-162 0 -256 103t-94 247z" />
<glyph unicode="&#xaa;" horiz-adv-x="694" d="M86 958q0 80 48 126t134 46q81 0 135 -45v33q0 99 -92 99q-69 0 -108 -52l-86 109q32 40 84.5 62t113.5 22q125 0 194 -66t69 -172v-317h-164v39q-56 -56 -146 -56q-86 0 -134 46t-48 126zM262 958q0 -26 16 -42.5t50 -16.5q45 0 75 39v39q-10 13 -16.5 19.5t-22.5 14 t-36 7.5q-33 0 -49.5 -16.5t-16.5 -43.5z" />
<glyph unicode="&#xab;" horiz-adv-x="1204" d="M72 578v79l319 387h246v-6l-301 -420l301 -421v-7h-246zM567 578v79l320 387h246v-6l-302 -420l302 -421v-7h-246z" />
<glyph unicode="&#xac;" d="M111 575v226h903v-508h-238v282h-665z" />
<glyph unicode="&#xad;" horiz-adv-x="792" d="M121 512v217h551v-217h-551z" />
<glyph unicode="&#xae;" horiz-adv-x="1015" d="M78 999q0 181 122.5 300.5t307.5 119.5t307.5 -119.5t122.5 -300.5q0 -180 -123 -302t-307 -122t-307 122t-123 302zM209 999q0 -132 83.5 -216.5t215.5 -84.5t215.5 84.5t83.5 216.5q0 131 -84 216t-215 85t-215 -85t-84 -216zM346 801v401h191q64 0 104.5 -35.5 t40.5 -97.5q0 -85 -78 -115l109 -147v-6h-129l-95 141h-28v-141h-115zM461 1034h63q19 0 31 10t12 25q0 18 -12 28.5t-31 10.5h-63v-74z" />
<glyph unicode="&#xaf;" horiz-adv-x="1247" d="M242 1260v184h663v-184h-663z" />
<glyph unicode="&#xb0;" horiz-adv-x="831" d="M76 1032q0 142 96.5 237t243.5 95t243.5 -95t96.5 -237t-96.5 -237t-243.5 -95t-243.5 95t-96.5 237zM268 1032q0 -65 41.5 -109t106.5 -44t106 44t41 109q0 66 -41 110t-106 44t-106.5 -44.5t-41.5 -109.5z" />
<glyph unicode="&#xb1;" d="M121 100v226h903v-226h-903zM121 752v225h332v315h237v-315h334v-225h-334v-291h-237v291h-332z" />
<glyph unicode="&#xb4;" horiz-adv-x="1292" d="M446 1194v6l185 309h282v-6l-251 -309h-216z" />
<glyph unicode="&#xb5;" horiz-adv-x="1216" d="M139 -354v1405h271v-629q0 -110 52.5 -168.5t139.5 -58.5q69 0 122.5 42.5t82.5 110.5v703h270v-1051h-260v117q-109 -146 -285 -146q-60 0 -122 27v-352h-271z" />
<glyph unicode="&#xb6;" horiz-adv-x="1112" d="M53 1026q0 174 95.5 270.5t254.5 96.5h238v-1733h-180v997h-58q-159 0 -254.5 96.5t-95.5 272.5zM752 -340v1733h180v-1733h-180z" />
<glyph unicode="&#xb7;" horiz-adv-x="565" d="M123 463v315h319v-315h-319z" />
<glyph unicode="&#xb8;" horiz-adv-x="1292" d="M383 -334l63 133q42 -26 86 -26q72 0 72 63q0 49 -45 88t-137 76l199 27q90 -42 138 -99.5t48 -126.5q0 -82 -66 -133t-176 -51q-117 0 -182 49z" />
<glyph unicode="&#xba;" horiz-adv-x="716" d="M80 1071q0 127 75.5 207t202.5 80t203 -80.5t76 -206.5t-76 -206.5t-203 -80.5t-202.5 80t-75.5 207zM258 1071q0 -145 100 -145q101 0 101 145q0 146 -101 146q-100 0 -100 -146z" />
<glyph unicode="&#xbb;" horiz-adv-x="1204" d="M72 190v7l301 419l-301 422v6h245l320 -387v-79l-320 -388h-245zM567 190v7l301 419l-301 422v6h246l320 -387v-79l-320 -388h-246z" />
<glyph unicode="&#xbc;" horiz-adv-x="1472" d="M47 1198l264 145h140v-745h-197v532l-133 -77zM260 0l635 1343h209l-633 -1343h-211zM772 168v135l281 442h243v-442h113v-135h-113v-168h-198v168h-326zM950 303h148v107q0 74 22 182h-8q-17 -53 -82 -160z" />
<glyph unicode="&#xbd;" horiz-adv-x="1505" d="M49 1198l264 145h140v-745h-197v532l-133 -77zM283 0l635 1343h208l-632 -1343h-211zM889 557q27 82 91 143.5t167 61.5q127 0 198.5 -69t71.5 -169q0 -62 -20 -113.5t-54 -87t-67 -61.5t-70 -52.5t-53 -43.5h268v-166h-524v139q23 48 65.5 94.5t84 80t80.5 66.5t63 66.5 t24 65.5q0 76 -73 76t-105 -101z" />
<glyph unicode="&#xbe;" horiz-adv-x="1583" d="M53 705l111 131q78 -82 168 -82q46 0 72 21t26 59q0 34 -27.5 52.5t-76.5 18.5h-80v144h80q31 0 48 18t17 49q0 33 -19.5 52.5t-52.5 19.5q-70 0 -114 -64l-115 121q99 115 242 115q129 0 197.5 -55t68.5 -154q0 -45 -24.5 -89t-67.5 -71q63 -20 96 -67.5t33 -112.5 q0 -107 -85.5 -168t-215.5 -61q-91 0 -164 36.5t-117 86.5zM381 0l635 1343h209l-633 -1343h-211zM889 168v135l280 442h244v-442h113v-135h-113v-168h-199v168h-325zM1067 303h147v107q0 69 23 182h-8q-17 -53 -82 -160z" />
<glyph unicode="&#xbf;" horiz-adv-x="913" d="M61 -8q0 203 187 346l80 70q46 44 60.5 77t14.5 93h234q34 -82 4 -168t-109 -156l-81 -70q-109 -91 -109 -176q0 -63 38.5 -102t104.5 -39q64 0 108.5 41t61.5 115l211 -89q-39 -133 -139 -219t-260 -86q-182 0 -294 103.5t-112 259.5zM356 741v310h320v-310h-320z" />
<glyph unicode="&#xc0;" horiz-adv-x="1304" d="M2 0l485 1393h330l486 -1393h-293l-99 299h-520l-96 -299h-293zM322 1853v7h282l184 -310v-6h-215zM465 524h373l-131 404q-23 65 -37.5 128.5t-14.5 92.5h-8q0 -29 -13.5 -92.5t-35.5 -128.5z" />
<glyph unicode="&#xc1;" horiz-adv-x="1304" d="M2 0l485 1393h330l486 -1393h-293l-99 299h-520l-96 -299h-293zM465 524h373l-131 404q-23 65 -37.5 128.5t-14.5 92.5h-8q0 -29 -13.5 -92.5t-35.5 -128.5zM518 1544v6l184 310h283v-7l-252 -309h-215z" />
<glyph unicode="&#xc2;" horiz-adv-x="1304" d="M2 0l485 1393h330l486 -1393h-293l-99 299h-520l-96 -299h-293zM291 1544v6l250 310h227l248 -310v-6h-221l-144 144l-139 -144h-221zM465 524h373l-131 404q-23 65 -37.5 128.5t-14.5 92.5h-8q0 -29 -13.5 -92.5t-35.5 -128.5z" />
<glyph unicode="&#xc3;" horiz-adv-x="1304" d="M2 0l485 1393h330l486 -1393h-293l-99 299h-520l-96 -299h-293zM295 1597q31 121 95.5 184.5t156.5 63.5q44 0 84 -16.5t64 -36.5t49.5 -36.5t43.5 -16.5q54 0 82 106l170 -55q-60 -248 -252 -248q-58 0 -106 27t-81.5 53.5t-55.5 26.5q-50 0 -78 -107zM465 524h373 l-131 404q-23 65 -37.5 128.5t-14.5 92.5h-8q0 -29 -13.5 -92.5t-35.5 -128.5z" />
<glyph unicode="&#xc4;" horiz-adv-x="1304" d="M2 0l485 1393h330l486 -1393h-293l-99 299h-520l-96 -299h-293zM301 1575v256h272v-256h-272zM465 524h373l-131 404q-23 65 -37.5 128.5t-14.5 92.5h-8q0 -29 -13.5 -92.5t-35.5 -128.5zM733 1575v256h271v-256h-271z" />
<glyph unicode="&#xc5;" horiz-adv-x="1304" d="M2 0l481 1380q-63 63 -63 152q0 93 68.5 155t164.5 62t164 -61.5t68 -155.5q0 -91 -64 -152l482 -1380h-293l-99 299h-520l-96 -299h-293zM465 524h373l-131 404q-23 65 -37.5 128.5t-14.5 92.5h-8q0 -29 -13.5 -92.5t-35.5 -128.5zM567 1532q0 -37 24 -61.5t62 -24.5 q37 0 60.5 24.5t23.5 61.5q0 38 -23.5 62t-60.5 24q-38 0 -62 -24t-24 -62z" />
<glyph unicode="&#xc6;" horiz-adv-x="1812" d="M-20 0v6l741 1387h993v-226h-594v-350h504v-225h-504v-367h594v-225h-870v281h-414l-143 -281h-307zM543 506h301v305q0 207 12 324h-8q-21 -77 -133 -293z" />
<glyph unicode="&#xc7;" horiz-adv-x="1351" d="M88 696q0 211 80.5 376t229 257t341.5 92q189 0 335 -90.5t226 -279.5l-235 -103q-37 112 -123 174t-203 62q-121 0 -204 -63.5t-121.5 -171t-38.5 -253.5t38.5 -253.5t121.5 -170.5t204 -63q118 0 203.5 61.5t122.5 173.5l235 -102q-130 -308 -442 -360 q111 -81 111 -191q0 -90 -74.5 -145.5t-196.5 -55.5q-135 0 -204 54l71 149q48 -26 94 -26q41 0 58.5 18t17.5 45q0 95 -166 162q-222 56 -351.5 245t-129.5 459z" />
<glyph unicode="&#xc8;" horiz-adv-x="1173" d="M170 0v1393h907v-226h-631v-350h533v-225h-533v-367h631v-225h-907zM299 1853v7h283l184 -310v-6h-215z" />
<glyph unicode="&#xc9;" horiz-adv-x="1173" d="M170 0v1393h907v-226h-631v-350h533v-225h-533v-367h631v-225h-907zM496 1544v6l184 310h283v-7l-252 -309h-215z" />
<glyph unicode="&#xca;" horiz-adv-x="1173" d="M170 0v1393h907v-226h-631v-350h533v-225h-533v-367h631v-225h-907zM268 1544v6l250 310h227l248 -310v-6h-221l-143 144l-140 -144h-221z" />
<glyph unicode="&#xcb;" horiz-adv-x="1173" d="M170 0v1393h907v-226h-631v-350h533v-225h-533v-367h631v-225h-907zM279 1575v256h272v-256h-272zM711 1575v256h270v-256h-270z" />
<glyph unicode="&#xcc;" horiz-adv-x="616" d="M-23 1853v7h283l184 -310v-6h-215zM170 0v1393h276v-1393h-276z" />
<glyph unicode="&#xcd;" horiz-adv-x="616" d="M170 0v1393h276v-1393h-276zM174 1544v6l184 310h283v-7l-252 -309h-215z" />
<glyph unicode="&#xce;" horiz-adv-x="616" d="M-53 1544v6l250 310h227l248 -310v-6h-221l-144 144l-139 -144h-221zM170 0v1393h276v-1393h-276z" />
<glyph unicode="&#xcf;" horiz-adv-x="616" d="M-43 1575v256h272v-256h-272zM170 0v1393h276v-1393h-276zM389 1575v256h270v-256h-270z" />
<glyph unicode="&#xd0;" horiz-adv-x="1431" d="M43 594v217h141v582h484q320 0 496.5 -184.5t176.5 -512.5t-176.5 -512t-496.5 -184h-484v594h-141zM461 225h194q200 0 300 122.5t100 348.5t-100 348.5t-300 122.5h-194v-356h287v-217h-287v-369z" />
<glyph unicode="&#xd1;" horiz-adv-x="1505" d="M170 0v1393h248l543 -779q40 -58 69.5 -115.5t36.5 -84.5h8q-16 75 -16 233v746h276v-1393h-245l-545 778q-40 58 -70 116t-37 85h-8q16 -74 16 -234v-745h-276zM383 1597q31 121 95.5 184.5t156.5 63.5q44 0 84 -16.5t64 -36.5t50 -36.5t44 -16.5q53 0 81 106l170 -55 q-60 -248 -251 -248q-45 0 -86 16.5t-65 37t-49.5 37t-43.5 16.5q-50 0 -78 -107z" />
<glyph unicode="&#xd2;" horiz-adv-x="1474" d="M88 696q0 211 80 376t228 257t341 92t341 -92t228 -257t80 -376t-80 -376t-228 -257t-341 -92t-341 92t-228 257t-80 376zM375 696q0 -222 92.5 -354.5t269.5 -132.5t270 132.5t93 354.5t-93 355t-270 133t-269.5 -133t-92.5 -355zM406 1853v7h282l184 -310v-6h-215z" />
<glyph unicode="&#xd3;" horiz-adv-x="1474" d="M88 696q0 211 80 376t228 257t341 92t341 -92t228 -257t80 -376t-80 -376t-228 -257t-341 -92t-341 92t-228 257t-80 376zM375 696q0 -222 92.5 -354.5t269.5 -132.5t270 132.5t93 354.5t-93 355t-270 133t-269.5 -133t-92.5 -355zM602 1544v6l184 310h283v-7l-252 -309 h-215z" />
<glyph unicode="&#xd4;" horiz-adv-x="1474" d="M88 696q0 211 80 376t228 257t341 92t341 -92t228 -257t80 -376t-80 -376t-228 -257t-341 -92t-341 92t-228 257t-80 376zM375 696q0 -222 92.5 -354.5t269.5 -132.5t270 132.5t93 354.5t-93 355t-270 133t-269.5 -133t-92.5 -355zM375 1544v6l250 310h227l248 -310v-6 h-221l-144 144l-139 -144h-221z" />
<glyph unicode="&#xd5;" horiz-adv-x="1474" d="M88 696q0 211 80 376t228 257t341 92t341 -92t228 -257t80 -376t-80 -376t-228 -257t-341 -92t-341 92t-228 257t-80 376zM375 696q0 -222 92.5 -354.5t269.5 -132.5t270 132.5t93 354.5t-93 355t-270 133t-269.5 -133t-92.5 -355zM379 1597q31 121 95.5 184.5 t156.5 63.5q44 0 84 -16.5t64 -36.5t49.5 -36.5t43.5 -16.5q54 0 82 106l170 -55q-60 -248 -252 -248q-58 0 -106 27t-81.5 53.5t-55.5 26.5q-50 0 -78 -107z" />
<glyph unicode="&#xd6;" horiz-adv-x="1474" d="M88 696q0 211 80 376t228 257t341 92t341 -92t228 -257t80 -376t-80 -376t-228 -257t-341 -92t-341 92t-228 257t-80 376zM375 696q0 -222 92.5 -354.5t269.5 -132.5t270 132.5t93 354.5t-93 355t-270 133t-269.5 -133t-92.5 -355zM385 1575v256h272v-256h-272zM817 1575 v256h270v-256h-270z" />
<glyph unicode="&#xd7;" d="M127 342l279 279l-279 278l168 168l278 -279l279 279l168 -168l-279 -278l279 -279l-168 -168l-279 279l-278 -279z" />
<glyph unicode="&#xd8;" horiz-adv-x="1474" d="M88 696q0 211 80 376t228 257t341 92q127 0 228 -39l39 76h294v-6l-110 -211q96 -97 147 -237t51 -308q0 -211 -80 -376t-228 -257t-341 -92q-120 0 -229 39l-39 -76h-297v7l111 215q-93 98 -144 236.5t-51 303.5zM375 696q0 -196 69 -319l412 788q-55 19 -119 19 q-177 0 -269.5 -133t-92.5 -355zM616 229q50 -20 121 -20q177 0 270 132.5t93 354.5q0 197 -74 324z" />
<glyph unicode="&#xd9;" horiz-adv-x="1404" d="M156 520v873h276v-856q0 -328 270 -328q271 0 271 328v856h276v-873q0 -119 -34.5 -218.5t-101 -173.5t-171.5 -115.5t-240 -41.5t-240 41.5t-171.5 115.5t-100.5 173t-34 219zM371 1853v7h282l185 -310v-6h-215z" />
<glyph unicode="&#xda;" horiz-adv-x="1404" d="M156 520v873h276v-856q0 -328 270 -328q271 0 271 328v856h276v-873q0 -119 -34.5 -218.5t-101 -173.5t-171.5 -115.5t-240 -41.5t-240 41.5t-171.5 115.5t-100.5 173t-34 219zM567 1544v6l185 310h282v-7l-252 -309h-215z" />
<glyph unicode="&#xdb;" horiz-adv-x="1404" d="M156 520v873h276v-856q0 -328 270 -328q271 0 271 328v856h276v-873q0 -119 -34.5 -218.5t-101 -173.5t-171.5 -115.5t-240 -41.5t-240 41.5t-171.5 115.5t-100.5 173t-34 219zM340 1544v6l250 310h227l248 -310v-6h-221l-144 144l-139 -144h-221z" />
<glyph unicode="&#xdc;" horiz-adv-x="1404" d="M156 520v873h276v-856q0 -328 270 -328q271 0 271 328v856h276v-873q0 -119 -34.5 -218.5t-101 -173.5t-171.5 -115.5t-240 -41.5t-240 41.5t-171.5 115.5t-100.5 173t-34 219zM350 1575v256h273v-256h-273zM782 1575v256h271v-256h-271z" />
<glyph unicode="&#xdd;" horiz-adv-x="1222" d="M2 1386v7h311l297 -539l299 539h312v-7l-471 -784v-602h-277v600zM477 1544v6l185 310h282v-7l-252 -309h-215z" />
<glyph unicode="&#xde;" horiz-adv-x="1179" d="M170 0v1393h276v-254h195q213 0 345 -112.5t132 -321.5t-132 -321t-345 -112h-195v-272h-276zM446 498h168q101 0 159 50t58 157q0 108 -58 158t-159 50h-168v-415z" />
<glyph unicode="&#xdf;" horiz-adv-x="1198" d="M139 0v1053q0 200 116 311t320 111q182 0 302 -109t120 -262q0 -192 -139 -279q122 -43 194 -144t72 -251q0 -134 -63 -238.5t-161 -157t-210 -52.5q-110 0 -174 20l33 217q51 -14 98 -14q99 0 151 64.5t52 174.5q0 115 -57 178.5t-166 63.5h-72v201h14q81 0 117.5 52 t36.5 138q0 76 -39.5 125t-114.5 49q-76 0 -117.5 -48t-41.5 -124v-1079h-271z" />
<glyph unicode="&#xe0;" horiz-adv-x="1107" d="M66 311q0 153 102.5 246.5t280.5 93.5q151 0 262 -88v66q0 100 -52 163.5t-157 63.5q-80 0 -141 -31.5t-97 -76.5l-139 170q52 67 153.5 114t229.5 47q226 0 349.5 -117.5t123.5 -310.5v-651h-254v74q-112 -103 -278 -103q-178 0 -280.5 93.5t-102.5 246.5zM209 1524v6 h283l184 -309v-7h-215zM338 311q0 -63 43 -105t131 -42q65 0 116.5 26.5t82.5 69.5v102q-31 44 -82.5 70.5t-116.5 26.5q-88 0 -131 -42.5t-43 -105.5z" />
<glyph unicode="&#xe1;" horiz-adv-x="1107" d="M66 311q0 153 102.5 246.5t280.5 93.5q151 0 262 -88v66q0 100 -52 163.5t-157 63.5q-80 0 -141 -31.5t-97 -76.5l-139 170q52 67 153.5 114t229.5 47q226 0 349.5 -117.5t123.5 -310.5v-651h-254v74q-112 -103 -278 -103q-178 0 -280.5 93.5t-102.5 246.5zM338 311 q0 -63 43 -105t131 -42q65 0 116.5 26.5t82.5 69.5v102q-31 44 -82.5 70.5t-116.5 26.5q-88 0 -131 -42.5t-43 -105.5zM406 1214v7l184 309h282v-6l-251 -310h-215z" />
<glyph unicode="&#xe2;" horiz-adv-x="1107" d="M66 311q0 153 102.5 246.5t280.5 93.5q151 0 262 -88v66q0 100 -52 163.5t-157 63.5q-80 0 -141 -31.5t-97 -76.5l-139 170q52 67 153.5 114t229.5 47q226 0 349.5 -117.5t123.5 -310.5v-651h-254v74q-112 -103 -278 -103q-178 0 -280.5 93.5t-102.5 246.5zM178 1214v7 l250 309h227l248 -309v-7h-221l-143 144l-140 -144h-221zM338 311q0 -63 43 -105t131 -42q65 0 116.5 26.5t82.5 69.5v102q-31 44 -82.5 70.5t-116.5 26.5q-88 0 -131 -42.5t-43 -105.5z" />
<glyph unicode="&#xe3;" horiz-adv-x="1107" d="M66 311q0 153 102.5 246.5t280.5 93.5q151 0 262 -88v66q0 100 -52 163.5t-157 63.5q-80 0 -141 -31.5t-97 -76.5l-139 170q52 67 153.5 114t229.5 47q226 0 349.5 -117.5t123.5 -310.5v-651h-254v74q-112 -103 -278 -103q-178 0 -280.5 93.5t-102.5 246.5zM182 1268 q31 121 95.5 184.5t156.5 63.5q56 0 104 -27t82 -53.5t56 -26.5q54 0 82 107l170 -56q-60 -248 -252 -248q-45 0 -86 16.5t-65 37t-49.5 37t-43.5 16.5q-50 0 -78 -107zM338 311q0 -63 43 -105t131 -42q65 0 116.5 26.5t82.5 69.5v102q-31 44 -82.5 70.5t-116.5 26.5 q-88 0 -131 -42.5t-43 -105.5z" />
<glyph unicode="&#xe4;" horiz-adv-x="1107" d="M66 311q0 153 102.5 246.5t280.5 93.5q151 0 262 -88v66q0 100 -52 163.5t-157 63.5q-80 0 -141 -31.5t-97 -76.5l-139 170q52 67 153.5 114t229.5 47q226 0 349.5 -117.5t123.5 -310.5v-651h-254v74q-112 -103 -278 -103q-178 0 -280.5 93.5t-102.5 246.5zM188 1245v256 h273v-256h-273zM338 311q0 -63 43 -105t131 -42q65 0 116.5 26.5t82.5 69.5v102q-31 44 -82.5 70.5t-116.5 26.5q-88 0 -131 -42.5t-43 -105.5zM621 1245v256h270v-256h-270z" />
<glyph unicode="&#xe5;" horiz-adv-x="1107" d="M66 311q0 153 102.5 246.5t280.5 93.5q151 0 262 -88v66q0 100 -52 163.5t-157 63.5q-80 0 -141 -31.5t-97 -76.5l-139 170q52 67 153.5 114t229.5 47q226 0 349.5 -117.5t123.5 -310.5v-651h-254v74q-112 -103 -278 -103q-178 0 -280.5 93.5t-102.5 246.5zM305 1413 q0 93 69 155t165 62t163.5 -61.5t67.5 -155.5t-67.5 -155.5t-163.5 -61.5t-165 62t-69 155zM338 311q0 -63 43 -105t131 -42q65 0 116.5 26.5t82.5 69.5v102q-31 44 -82.5 70.5t-116.5 26.5q-88 0 -131 -42.5t-43 -105.5zM453 1413q0 -37 24 -61.5t62 -24.5q37 0 60.5 24.5 t23.5 61.5q0 38 -23.5 62t-60.5 24q-38 0 -62 -24t-24 -62z" />
<glyph unicode="&#xe6;" horiz-adv-x="1757" d="M66 307q0 147 108.5 236.5t296.5 89.5h231q-2 99 -56 161t-165 62q-76 0 -133 -35.5t-92 -85.5l-139 170q50 73 148 123.5t222 50.5q244 0 361 -159q137 159 358 159q211 0 346.5 -146t135.5 -372q0 -38 -9 -108h-714q16 -122 84 -192.5t186 -70.5q168 0 260 148 l168 -139q-89 -118 -198.5 -173t-250.5 -55q-237 0 -378 160q-147 -160 -359 -160q-191 0 -301 92.5t-110 243.5zM338 307q0 -61 41.5 -102t124.5 -41q70 0 136.5 39.5t96.5 97.5q-23 67 -32 152h-177q-96 0 -143 -42t-47 -104zM969 637h456q-12 116 -69 173.5t-150 57.5 q-196 0 -237 -231z" />
<glyph unicode="&#xe7;" horiz-adv-x="1077" d="M80 526q0 254 139 404.5t377 150.5q140 0 255 -73.5t167 -214.5l-205 -97q-29 74 -85.5 118t-131.5 44q-119 0 -180.5 -90.5t-61.5 -241.5t61.5 -241t180.5 -90q75 0 132 43.5t85 117.5l205 -96q-43 -116 -130.5 -187.5t-199.5 -92.5q107 -77 107 -179q0 -82 -66 -133 t-176 -51q-117 0 -182 49l63 133q42 -26 86 -26q72 0 72 63q0 49 -45 88t-137 76q-157 53 -243.5 190t-86.5 336z" />
<glyph unicode="&#xe8;" horiz-adv-x="1136" d="M78 522q0 129 41.5 236t111.5 176t161.5 107t193.5 38q210 0 345.5 -146t135.5 -372q0 -46 -8 -108h-715q16 -122 84 -192.5t186 -70.5q168 0 260 148l168 -139q-89 -118 -198 -173t-250 -55q-229 0 -372.5 150.5t-143.5 400.5zM260 1524v6h283l184 -309v-7h-215z M348 637h459q-12 116 -70 173.5t-151 57.5q-96 0 -157 -58.5t-81 -172.5z" />
<glyph unicode="&#xe9;" horiz-adv-x="1136" d="M78 522q0 129 41.5 236t111.5 176t161.5 107t193.5 38q210 0 345.5 -146t135.5 -372q0 -46 -8 -108h-715q16 -122 84 -192.5t186 -70.5q168 0 260 148l168 -139q-89 -118 -198 -173t-250 -55q-229 0 -372.5 150.5t-143.5 400.5zM348 637h459q-12 116 -70 173.5t-151 57.5 q-96 0 -157 -58.5t-81 -172.5zM457 1214v7l184 309h283v-6l-252 -310h-215z" />
<glyph unicode="&#xea;" horiz-adv-x="1136" d="M78 522q0 129 41.5 236t111.5 176t161.5 107t193.5 38q210 0 345.5 -146t135.5 -372q0 -46 -8 -108h-715q16 -122 84 -192.5t186 -70.5q168 0 260 148l168 -139q-89 -118 -198 -173t-250 -55q-229 0 -372.5 150.5t-143.5 400.5zM229 1214v7l250 309h228l247 -309v-7h-221 l-143 144l-139 -144h-222zM348 637h459q-12 116 -70 173.5t-151 57.5q-96 0 -157 -58.5t-81 -172.5z" />
<glyph unicode="&#xeb;" horiz-adv-x="1136" d="M78 522q0 129 41.5 236t111.5 176t161.5 107t193.5 38q210 0 345.5 -146t135.5 -372q0 -46 -8 -108h-715q16 -122 84 -192.5t186 -70.5q168 0 260 148l168 -139q-89 -118 -198 -173t-250 -55q-229 0 -372.5 150.5t-143.5 400.5zM240 1245v256h272v-256h-272zM348 637h459 q-12 116 -70 173.5t-151 57.5q-96 0 -157 -58.5t-81 -172.5zM672 1245v256h270v-256h-270z" />
<glyph unicode="&#xec;" horiz-adv-x="548" d="M-57 1524v6h282l185 -309v-7h-215zM139 0v1051h271v-1051h-271z" />
<glyph unicode="&#xed;" horiz-adv-x="548" d="M139 0v1051h271v-1051h-271zM139 1214v7l185 309h282v-6l-252 -310h-215z" />
<glyph unicode="&#xee;" horiz-adv-x="548" d="M-88 1214v7l250 309h227l248 -309v-7h-221l-144 144l-139 -144h-221zM139 0v1051h271v-1051h-271z" />
<glyph unicode="&#xef;" horiz-adv-x="548" d="M-78 1245v256h273v-256h-273zM139 0v1051h271v-1051h-271zM354 1245v256h271v-256h-271z" />
<glyph unicode="&#xf0;" horiz-adv-x="1167" d="M80 483q0 215 122.5 355.5t305.5 140.5q125 0 223 -88q-54 116 -147 239l-242 -86l-59 166l176 62q-59 64 -185 176v6h342q61 -53 97 -92l198 72l60 -166l-137 -49q115 -158 183 -338.5t68 -356.5q0 -112 -32 -210.5t-92.5 -175.5t-158.5 -122t-222 -45q-122 0 -219.5 43 t-157.5 115.5t-91.5 163t-31.5 190.5zM354 479q0 -133 62.5 -208.5t163.5 -75.5q104 0 167.5 86t63.5 245q0 66 -8 115q-82 123 -223 123q-102 0 -164 -76t-62 -209z" />
<glyph unicode="&#xf1;" horiz-adv-x="1206" d="M139 0v1051h260v-115q115 143 301 143q191 0 284 -111t93 -304v-664h-270v629q0 109 -53 168t-140 59q-70 0 -122 -42.5t-82 -111.5v-702h-271zM260 1268q31 121 95.5 184.5t156.5 63.5q56 0 104 -27t82 -53.5t56 -26.5q54 0 82 107l170 -56q-60 -248 -252 -248 q-45 0 -86 16.5t-65 37t-49.5 37t-43.5 16.5q-50 0 -78 -107z" />
<glyph unicode="&#xf2;" horiz-adv-x="1200" d="M78 526q0 244 142.5 398.5t379.5 154.5t379.5 -154.5t142.5 -398.5q0 -246 -142.5 -400.5t-379.5 -154.5t-379.5 154.5t-142.5 400.5zM268 1524v6h283l184 -309v-7h-215zM352 526q0 -149 63 -240t185 -91t185 91t63 240t-63 239.5t-185 90.5t-185 -90.5t-63 -239.5z" />
<glyph unicode="&#xf3;" horiz-adv-x="1200" d="M78 526q0 244 142.5 398.5t379.5 154.5t379.5 -154.5t142.5 -398.5q0 -246 -142.5 -400.5t-379.5 -154.5t-379.5 154.5t-142.5 400.5zM352 526q0 -149 63 -240t185 -91t185 91t63 240t-63 239.5t-185 90.5t-185 -90.5t-63 -239.5zM465 1214v7l184 309h283v-6l-252 -310 h-215z" />
<glyph unicode="&#xf4;" horiz-adv-x="1200" d="M78 526q0 244 142.5 398.5t379.5 154.5t379.5 -154.5t142.5 -398.5q0 -246 -142.5 -400.5t-379.5 -154.5t-379.5 154.5t-142.5 400.5zM238 1214v7l249 309h228l248 -309v-7h-222l-143 144l-139 -144h-221zM352 526q0 -149 63 -240t185 -91t185 91t63 240t-63 239.5 t-185 90.5t-185 -90.5t-63 -239.5z" />
<glyph unicode="&#xf5;" horiz-adv-x="1200" d="M78 526q0 244 142.5 398.5t379.5 154.5t379.5 -154.5t142.5 -398.5q0 -246 -142.5 -400.5t-379.5 -154.5t-379.5 154.5t-142.5 400.5zM242 1268q31 121 95.5 184.5t156.5 63.5q44 0 84 -16.5t64 -37t49.5 -37t43.5 -16.5q54 0 82 107l170 -56q-60 -248 -252 -248 q-58 0 -106 27t-81.5 53.5t-55.5 26.5q-50 0 -78 -107zM352 526q0 -149 63 -240t185 -91t185 91t63 240t-63 239.5t-185 90.5t-185 -90.5t-63 -239.5z" />
<glyph unicode="&#xf6;" horiz-adv-x="1200" d="M78 526q0 244 142.5 398.5t379.5 154.5t379.5 -154.5t142.5 -398.5q0 -246 -142.5 -400.5t-379.5 -154.5t-379.5 154.5t-142.5 400.5zM248 1245v256h272v-256h-272zM352 526q0 -149 63 -240t185 -91t185 91t63 240t-63 239.5t-185 90.5t-185 -90.5t-63 -239.5zM680 1245 v256h270v-256h-270z" />
<glyph unicode="&#xf7;" d="M123 506v225h903v-225h-903zM426 92v270h299v-270h-299zM426 874v273h299v-273h-299z" />
<glyph unicode="&#xf8;" horiz-adv-x="1200" d="M78 526q0 244 142.5 398.5t379.5 154.5q96 0 178 -28l37 69h225v-6l-86 -164q81 -76 124.5 -185t43.5 -239q0 -246 -142.5 -400.5t-379.5 -154.5q-94 0 -186 29l-37 -72h-227v6l90 170q-162 156 -162 422zM352 526q0 -120 41 -204l277 524q-38 10 -70 10 q-122 0 -185 -90.5t-63 -239.5zM522 205q42 -10 78 -10q122 0 185 91t63 240q0 128 -45 211z" />
<glyph unicode="&#xf9;" horiz-adv-x="1206" d="M129 387v664h270v-629q0 -109 53 -168t140 -59q69 0 122.5 42.5t82.5 110.5v703h270v-1051h-260v115q-116 -144 -301 -144q-191 0 -284 111.5t-93 304.5zM266 1524v6h283l184 -309v-7h-215z" />
<glyph unicode="&#xfa;" horiz-adv-x="1206" d="M129 387v664h270v-629q0 -109 53 -168t140 -59q69 0 122.5 42.5t82.5 110.5v703h270v-1051h-260v115q-116 -144 -301 -144q-191 0 -284 111.5t-93 304.5zM463 1214v7l184 309h283v-6l-252 -310h-215z" />
<glyph unicode="&#xfb;" horiz-adv-x="1206" d="M129 387v664h270v-629q0 -109 53 -168t140 -59q69 0 122.5 42.5t82.5 110.5v703h270v-1051h-260v115q-116 -144 -301 -144q-191 0 -284 111.5t-93 304.5zM236 1214v7l249 309h228l248 -309v-7h-222l-143 144l-139 -144h-221z" />
<glyph unicode="&#xfc;" horiz-adv-x="1206" d="M129 387v664h270v-629q0 -109 53 -168t140 -59q69 0 122.5 42.5t82.5 110.5v703h270v-1051h-260v115q-116 -144 -301 -144q-191 0 -284 111.5t-93 304.5zM246 1245v256h272v-256h-272zM678 1245v256h270v-256h-270z" />
<glyph unicode="&#xfd;" horiz-adv-x="1067" d="M20 1051h291l174 -480q56 -163 56 -213h8q8 79 51 213l162 480h293l-561 -1405h-293l202 487zM401 1214v7l185 309h282v-6l-252 -310h-215z" />
<glyph unicode="&#xfe;" horiz-adv-x="1241" d="M139 -354v1808h271v-512q113 139 282 139q206 0 337.5 -149.5t131.5 -405.5t-131.5 -405.5t-337.5 -149.5q-170 0 -282 138v-463h-271zM410 354q30 -74 91.5 -116.5t131.5 -42.5q114 0 184 83.5t70 247.5t-70.5 248t-183.5 84q-70 0 -131.5 -43t-91.5 -117v-344z" />
<glyph unicode="&#xff;" horiz-adv-x="1067" d="M20 1051h291l174 -480q56 -163 56 -213h8q8 79 51 213l162 480h293l-561 -1405h-293l202 487zM184 1245v256h273v-256h-273zM616 1245v256h271v-256h-271z" />
<glyph unicode="&#x152;" horiz-adv-x="1894" d="M88 696q0 211 80 376t228 257t341 92q105 0 203 -28h856v-226h-594v-350h502v-225h-502v-367h594v-225h-858q-98 -29 -201 -29q-193 0 -341 92t-228 257t-80 376zM375 696q0 -222 92.5 -354.5t269.5 -132.5q110 0 189 43v889q-84 43 -189 43q-177 0 -269.5 -133 t-92.5 -355z" />
<glyph unicode="&#x153;" horiz-adv-x="1886" d="M78 526q0 244 142.5 398.5t379.5 154.5q118 0 212 -46.5t157 -131.5q67 87 161.5 132.5t204.5 45.5q211 0 346.5 -146t135.5 -372q0 -38 -9 -108h-714q16 -122 84 -192.5t186 -70.5q168 0 260 148l168 -139q-89 -118 -198.5 -173t-250.5 -55q-241 0 -376 174 q-63 -83 -156.5 -128.5t-210.5 -45.5q-237 0 -379.5 154.5t-142.5 400.5zM352 526q0 -149 63 -240t185 -91t185 91t63 240t-63 239.5t-185 90.5t-185 -90.5t-63 -239.5zM1098 637h458q-12 116 -70 173.5t-151 57.5q-96 0 -156.5 -58t-80.5 -173z" />
<glyph unicode="&#x178;" horiz-adv-x="1222" d="M2 1386v7h311l297 -539l299 539h312v-7l-471 -784v-602h-277v600zM260 1575v256h272v-256h-272zM692 1575v256h271v-256h-271z" />
<glyph unicode="&#x2c6;" horiz-adv-x="1239" d="M272 1194v6l250 309h228l247 -309v-6h-221l-143 143l-139 -143h-222z" />
<glyph unicode="&#x2dc;" horiz-adv-x="1226" d="M209 1247q31 121 95.5 184.5t156.5 63.5q44 0 84 -16.5t64 -36.5t49.5 -36.5t43.5 -16.5q54 0 82 106l170 -55q-60 -248 -252 -248q-45 0 -85.5 16.5t-64.5 36.5t-49.5 36.5t-43.5 16.5q-29 0 -47 -27.5t-31 -78.5z" />
<glyph unicode="&#x2000;" horiz-adv-x="930" />
<glyph unicode="&#x2001;" horiz-adv-x="1860" />
<glyph unicode="&#x2002;" horiz-adv-x="930" />
<glyph unicode="&#x2003;" horiz-adv-x="1860" />
<glyph unicode="&#x2004;" horiz-adv-x="620" />
<glyph unicode="&#x2005;" horiz-adv-x="465" />
<glyph unicode="&#x2006;" horiz-adv-x="310" />
<glyph unicode="&#x2007;" horiz-adv-x="310" />
<glyph unicode="&#x2008;" horiz-adv-x="232" />
<glyph unicode="&#x2009;" horiz-adv-x="372" />
<glyph unicode="&#x200a;" horiz-adv-x="103" />
<glyph unicode="&#x2010;" horiz-adv-x="792" d="M121 512v217h551v-217h-551z" />
<glyph unicode="&#x2011;" horiz-adv-x="792" d="M121 512v217h551v-217h-551z" />
<glyph unicode="&#x2012;" horiz-adv-x="792" d="M121 512v217h551v-217h-551z" />
<glyph unicode="&#x2013;" horiz-adv-x="1175" d="M121 512v217h934v-217h-934z" />
<glyph unicode="&#x2014;" horiz-adv-x="1802" d="M121 512v217h1560v-217h-1560z" />
<glyph unicode="&#x2018;" horiz-adv-x="514" d="M100 786v267l142 340h147l-125 -308h139v-299h-303z" />
<glyph unicode="&#x2019;" horiz-adv-x="499" d="M111 1094v299h303v-267l-142 -340h-147l125 308h-139z" />
<glyph unicode="&#x201a;" horiz-adv-x="538" d="M119 0v299h303v-266l-141 -340h-148l125 307h-139z" />
<glyph unicode="&#x201c;" horiz-adv-x="956" d="M100 786v267l142 340h147l-123 -308h137v-299h-303zM543 786v267l141 340h147l-122 -308h137v-299h-303z" />
<glyph unicode="&#x201d;" horiz-adv-x="942" d="M111 1096v299h303v-267l-142 -340h-147l125 308h-139zM553 1094v299h303v-267l-141 -340h-148l125 308h-139z" />
<glyph unicode="&#x201e;" horiz-adv-x="980" d="M119 0v299h303v-266l-141 -340h-148l125 307h-139zM561 0v299h303v-266l-141 -340h-148l125 307h-139z" />
<glyph unicode="&#x2022;" horiz-adv-x="819" d="M141 616q0 114 74.5 189.5t194.5 75.5t194 -75.5t74 -189.5t-74 -189t-194 -75t-194.5 75t-74.5 189z" />
<glyph unicode="&#x2026;" horiz-adv-x="1536" d="M115 0v315h319v-315h-319zM608 0v315h320v-315h-320zM1102 0v315h319v-315h-319z" />
<glyph unicode="&#x202f;" horiz-adv-x="372" />
<glyph unicode="&#x2039;" horiz-adv-x="708" d="M72 578v79l319 387h246v-6l-301 -420l301 -421v-7h-246z" />
<glyph unicode="&#x203a;" horiz-adv-x="708" d="M72 190v7l301 419l-301 422v6h245l320 -387v-79l-320 -388h-245z" />
<glyph unicode="&#x205f;" horiz-adv-x="465" />
<glyph unicode="&#x20ac;" d="M63 436v174h111v62v59h-111v174h130q44 236 180 351.5t338 115.5q248 0 385 -209l-170 -151q-93 125 -219 125q-92 0 -151.5 -54t-86.5 -178h369v-174h-389v-59v-62h389v-174h-369q27 -124 86 -176.5t152 -52.5q126 0 219 125l170 -152q-137 -209 -385 -209 q-202 0 -337 115t-179 350h-132z" />
<glyph unicode="&#x2122;" horiz-adv-x="1468" d="M66 1255v138h485v-138h-162v-479h-164v479h-159zM653 776v617h228l41 -123q68 -212 71 -266h6q0 48 70 266l39 123h227v-617h-164v2q0 368 9 424h-6q-5 -42 -117 -405l-6 -21h-113l-6 21q-112 363 -117 405h-6q8 -49 8 -424v-2h-164z" />
<glyph unicode="&#x25fc;" horiz-adv-x="1054" d="M0 0v1055h1055v-1055h-1055z" />
<glyph unicode="&#xfb01;" horiz-adv-x="1271" d="M49 850v201h168v71q0 159 87.5 258t254.5 99q63 0 127 -9v-213h-43q-85 0 -120.5 -32t-35.5 -107v-67h199v-201h-199v-850h-270v850h-168zM850 1223v258h295v-258h-295zM862 0v1051h271v-1051h-271z" />
<glyph unicode="&#xfb02;" horiz-adv-x="1271" d="M49 850v201h168v71q0 159 87.5 258t254.5 99q63 0 127 -9v-213h-43q-85 0 -120.5 -32t-35.5 -107v-67h199v-201h-199v-850h-270v850h-168zM862 0v1454h271v-1454h-271z" />
</font>
</defs>
</svg>
